<svg width="30" height="30" viewBox="0 0 30 30" fill="none" xmlns="http://www.w3.org/2000/svg">
<rect width="30" height="30" rx="15" fill="#FE753F"/>
<g clip-path="url(#clip0_1_147)">
<path d="M19 9H11C10.4696 9 9.96086 9.21071 9.58579 9.58579C9.21071 9.96086 9 10.4696 9 11V19C9 19.5304 9.21071 20.0391 9.58579 20.4142C9.96086 20.7893 10.4696 21 11 21H19C19.5304 21 20.0391 20.7893 20.4142 20.4142C20.7893 20.0391 21 19.5304 21 19V11C21 10.4696 20.7893 9.96086 20.4142 9.58579C20.0391 9.21071 19.5304 9 19 9V9ZM20 19C20 19.2652 19.8946 19.5196 19.7071 19.7071C19.5196 19.8946 19.2652 20 19 20H11C10.7348 20 10.4804 19.8946 10.2929 19.7071C10.1054 19.5196 10 19.2652 10 19V11C10 10.7348 10.1054 10.4804 10.2929 10.2929C10.4804 10.1054 10.7348 10 11 10H19C19.2652 10 19.5196 10.1054 19.7071 10.2929C19.8946 10.4804 20 10.7348 20 11V19Z" fill="white"/>
<path d="M15 12C14.4066 12 13.8266 12.1759 13.3333 12.5056C12.8399 12.8352 12.4554 13.3038 12.2283 13.8519C12.0013 14.4001 11.9419 15.0033 12.0576 15.5853C12.1734 16.1672 12.4591 16.7018 12.8787 17.1213C13.2982 17.5409 13.8328 17.8266 14.4147 17.9424C14.9966 18.0581 15.5998 17.9987 16.148 17.7716C16.6962 17.5446 17.1647 17.1601 17.4944 16.6667C17.824 16.1734 18 15.5933 18 15C18 14.2044 17.6839 13.4413 17.1213 12.8787C16.5587 12.3161 15.7956 12 15 12ZM15 17C14.6044 17 14.2177 16.8827 13.8888 16.6629C13.5599 16.4432 13.3036 16.1308 13.1522 15.7654C13.0008 15.3999 12.9612 14.9978 13.0384 14.6098C13.1156 14.2219 13.3061 13.8655 13.5858 13.5858C13.8655 13.3061 14.2218 13.1156 14.6098 13.0384C14.9978 12.9613 15.3999 13.0009 15.7653 13.1522C16.1308 13.3036 16.4431 13.56 16.6629 13.8889C16.8827 14.2178 17 14.6044 17 15C17 15.5304 16.7893 16.0391 16.4142 16.4142C16.0391 16.7893 15.5304 17 15 17Z" fill="white"/>
<path d="M18.25 12.5C18.6642 12.5 19 12.1642 19 11.75C19 11.3358 18.6642 11 18.25 11C17.8358 11 17.5 11.3358 17.5 11.75C17.5 12.1642 17.8358 12.5 18.25 12.5Z" fill="white"/>
</g>
<defs>
<clipPath id="clip0_1_147">
<rect width="12" height="12" fill="white" transform="translate(9 9)"/>
</clipPath>
</defs>
</svg>
