<svg width="30" height="30" viewBox="0 0 30 30" fill="none" xmlns="http://www.w3.org/2000/svg">
<rect width="30" height="30" rx="15" fill="#FE753F"/>
<g clip-path="url(#clip0_1_136)">
<path d="M22 10.6591C21.4794 10.8875 20.9246 11.0389 20.3462 11.1124C20.9412 10.7571 21.3954 10.1989 21.6089 9.526C21.0541 9.85675 20.4416 10.0904 19.7889 10.2208C19.2621 9.65988 18.5114 9.3125 17.6924 9.3125C16.1034 9.3125 14.8241 10.6023 14.8241 12.1834C14.8241 12.4109 14.8434 12.6296 14.8906 12.8379C12.5045 12.7215 10.3931 11.5779 8.97475 9.83575C8.72712 10.2654 8.58188 10.7571 8.58188 11.2865C8.58188 12.2805 9.09375 13.1616 9.85675 13.6718C9.39562 13.663 8.94325 13.5291 8.56 13.3183C8.56 13.327 8.56 13.3384 8.56 13.3498C8.56 14.7445 9.55487 15.903 10.8595 16.1699C10.6259 16.2337 10.3712 16.2644 10.107 16.2644C9.92325 16.2644 9.73775 16.2539 9.56362 16.2154C9.9355 17.352 10.9908 18.1876 12.2455 18.2148C11.269 18.9786 10.0291 19.4389 8.68688 19.4389C8.4515 19.4389 8.22575 19.4284 8 19.3995C9.27137 20.2194 10.7781 20.6875 12.403 20.6875C17.6845 20.6875 20.572 16.3125 20.572 12.5202C20.572 12.3934 20.5676 12.2709 20.5615 12.1493C21.1311 11.745 21.6097 11.2401 22 10.6591Z" fill="white"/>
</g>
<defs>
<clipPath id="clip0_1_136">
<rect width="14" height="14" fill="white" transform="translate(8 8)"/>
</clipPath>
</defs>
</svg>
