<svg width="30" height="30" viewBox="0 0 30 30" fill="none" xmlns="http://www.w3.org/2000/svg">
<rect width="30" height="30" rx="15" fill="#FE753F"/>
<path d="M19.6308 10H10.3692C9.74087 10 9.13825 10.2575 8.69393 10.716C8.24961 11.1744 8 11.7961 8 12.4444V17.5556C8 18.2039 8.24961 18.8256 8.69393 19.284C9.13825 19.7425 9.74087 20 10.3692 20H19.6308C20.2591 20 20.8618 19.7425 21.3061 19.284C21.7504 18.8256 22 18.2039 22 17.5556V12.4444C22 11.7961 21.7504 11.1744 21.3061 10.716C20.8618 10.2575 20.2591 10 19.6308 10ZM17.7418 15.0978L13.5418 17.32C13.5255 17.3287 13.5072 17.333 13.4888 17.3324C13.4704 17.3318 13.4525 17.3263 13.4367 17.3165C13.4209 17.3067 13.4079 17.2929 13.3987 17.2764C13.3896 17.2599 13.3848 17.2412 13.3846 17.2222V12.7778C13.3848 12.7588 13.3896 12.7401 13.3987 12.7236C13.4079 12.7071 13.4209 12.6933 13.4367 12.6835C13.4525 12.6737 13.4704 12.6682 13.4888 12.6676C13.5072 12.667 13.5255 12.6713 13.5418 12.68L17.7418 14.9022C17.7595 14.9115 17.7743 14.9257 17.7846 14.9432C17.795 14.9606 17.8004 14.9807 17.8004 15.0011C17.8004 15.0216 17.795 15.0416 17.7846 15.0591C17.7743 15.0765 17.7595 15.0907 17.7418 15.1V15.0978Z" fill="white"/>
</svg>
