<svg width="30" height="30" viewBox="0 0 30 30" fill="none" xmlns="http://www.w3.org/2000/svg">
<rect width="30" height="30" rx="15" fill="#FE753F"/>
<path d="M20.995 21.3687V21.3681H20.998V16.8319C20.998 14.6128 20.5346 12.9033 18.018 12.9033C16.8082 12.9033 15.9964 13.5877 15.6649 14.2366H15.6299V13.1105H13.2438V21.3681H15.7284V17.2793C15.7284 16.2027 15.9264 15.1616 17.2197 15.1616C18.494 15.1616 18.513 16.3903 18.513 17.3483V21.3687H20.995Z" fill="white"/>
<path d="M9.19861 13.1113H11.6862V21.3687H9.19861V13.1113Z" fill="white"/>
<path d="M10.4408 9C9.64539 9 9 9.66542 9 10.4855C9 11.3055 9.64539 11.9849 10.4408 11.9849C11.2361 11.9849 11.8815 11.3055 11.8815 10.4855C11.881 9.66542 11.2356 9 10.4408 9V9Z" fill="white"/>
</svg>
