<svg width="20" height="20" viewBox="0 0 20 20" fill="none" xmlns="http://www.w3.org/2000/svg">
<path fill-rule="evenodd" clip-rule="evenodd" d="M16.3333 18.3333C16.5177 18.3333 16.6667 18.4827 16.6667 18.6667C16.6667 18.8507 16.5177 19 16.3333 19H15.3333C15.149 19 15 18.8507 15 18.6667C15 18.4827 15.149 18.3333 15.3333 18.3333H16.3333ZM17 16H17.6667C17.851 16 18 16.1493 18 16.3333C18 16.5173 17.851 16.6667 17.6667 16.6667H17C16.8157 16.6667 16.6667 16.5173 16.6667 16.3333C16.6667 16.1493 16.8157 16 17 16ZM14 17C14 16.816 14.149 16.6667 14.3333 16.6667H15C15.1843 16.6667 15.3333 16.816 15.3333 17C15.3333 17.184 15.1843 17.3333 15 17.3333H14.3333C14.149 17.3333 14 17.184 14 17ZM13.3333 16H12.6667C12.4823 16 12.3333 15.8507 12.3333 15.6667C12.3333 15.4827 12.4823 15.3333 12.6667 15.3333H13.3333C13.5177 15.3333 13.6667 15.4827 13.6667 15.6667C13.6667 15.8507 13.5177 16 13.3333 16ZM12 19H11.3333C11.149 19 11 18.8507 11 18.6667C11 18.4827 11.149 18.3333 11.3333 18.3333H12C12.1843 18.3333 12.3333 18.4827 12.3333 18.6667C12.3333 18.8507 12.1843 19 12 19ZM10.3333 16.6667C10.3333 16.4827 10.4823 16.3333 10.6667 16.3333H11.3333C11.5177 16.3333 11.6667 16.4827 11.6667 16.6667C11.6667 16.8507 11.5177 17 11.3333 17H10.6667C10.4823 17 10.3333 16.8507 10.3333 16.6667ZM9 15.6667H8C7.81567 15.6667 7.66667 15.5173 7.66667 15.3333C7.66667 15.1493 7.81567 15 8 15H9C9.18433 15 9.33333 15.1493 9.33333 15.3333C9.33333 15.5173 9.18433 15.6667 9 15.6667ZM9 17.6667H8.33333C8.149 17.6667 8 17.5173 8 17.3333C8 17.1493 8.149 17 8.33333 17H9C9.18433 17 9.33333 17.1493 9.33333 17.3333C9.33333 17.5173 9.18433 17.6667 9 17.6667ZM7.33333 19H6.33333C6.149 19 6 18.8507 6 18.6667C6 18.4827 6.149 18.3333 6.33333 18.3333H7.33333C7.51767 18.3333 7.66667 18.4827 7.66667 18.6667C7.66667 18.8507 7.51767 19 7.33333 19ZM5 17C5 16.816 5.149 16.6667 5.33333 16.6667H6C6.18433 16.6667 6.33333 16.816 6.33333 17C6.33333 17.184 6.18433 17.3333 6 17.3333H5.33333C5.149 17.3333 5 17.184 5 17ZM4.33333 16H3.66667C3.48233 16 3.33333 15.8507 3.33333 15.6667C3.33333 15.4827 3.48233 15.3333 3.66667 15.3333H4.33333C4.51767 15.3333 4.66667 15.4827 4.66667 15.6667C4.66667 15.8507 4.51767 16 4.33333 16ZM4 18.6667H3.33333C3.149 18.6667 3 18.5173 3 18.3333C3 18.1493 3.149 18 3.33333 18H4C4.18433 18 4.33333 18.1493 4.33333 18.3333C4.33333 18.5173 4.18433 18.6667 4 18.6667ZM2.33333 17.3333H1.66667C1.48233 17.3333 1.33333 17.184 1.33333 17C1.33333 16.816 1.48233 16.6667 1.66667 16.6667H2.33333C2.51767 16.6667 2.66667 16.816 2.66667 17C2.66667 17.184 2.51767 17.3333 2.33333 17.3333ZM16.5077 3.99133C18.4483 3.89933 20 2.29633 20 0.333333V0H19.6667C17.6843 0 16.0687 1.58233 16.006 3.54933C15.6637 4.00133 15.4303 4.61267 15.246 5.19267C15.0927 4.318 14.8943 3.493 14.6437 2.77033C14.8563 1.993 15.291 1.175 15.5667 0.904667C15.6983 0.775667 15.7003 0.564667 15.5713 0.433333C15.4417 0.301333 15.2307 0.299667 15.1 0.428667C14.8197 0.703333 14.5043 1.24867 14.2607 1.84C14.0597 1.42533 13.8353 1.06433 13.583 0.779C13.4617 0.641333 13.2503 0.628667 13.1127 0.750333C12.9747 0.872333 12.9617 1.083 13.0837 1.221C13.5007 1.69233 13.8373 2.41133 14.1057 3.27633C13.8013 3.025 13.4573 2.79533 13.1007 2.68233C12.9243 2.62567 12.738 2.724 12.6823 2.89933C12.6267 3.075 12.724 3.26233 12.8993 3.31767C13.4403 3.489 14.045 4.10967 14.3693 4.443L14.4223 4.49633C14.6057 5.35233 14.7403 6.28833 14.8313 7.24133C14.676 7.107 14.5137 6.97867 14.357 6.85633L14.3317 6.83667C14.3067 5.26267 13.0577 3.95667 11.465 3.888L11.132 3.87367L11.1177 4.20667C11.048 5.82033 12.274 7.192 13.8707 7.32233L13.9467 7.382C14.317 7.67133 14.7693 8.027 14.9193 8.353C14.997 9.608 15.005 10.8453 14.9593 11.9207C14.7513 11.7373 14.5297 11.5557 14.296 11.377C14.0527 10.476 13.49 9.71167 12.6937 9.21767C11.8617 8.70133 10.8773 8.541 9.92367 8.76433L9.59933 8.84033L9.67533 9.165C9.899 10.119 10.48 10.929 11.3123 11.4447C11.8993 11.8093 12.5623 11.9967 13.237 11.9967C13.4633 11.9967 13.6907 11.9697 13.9173 11.927C14.2833 12.2083 14.6153 12.4957 14.9083 12.7843C14.8663 13.3317 14.8083 13.8123 14.7377 14.2027C14.3977 14.0727 14.0357 14 13.6667 14C13.26 14 12.894 14.0627 12.5583 14.191C12.239 13.2867 11.3643 12.6667 10.3333 12.6667C9.62167 12.6667 9.04633 13.1153 8.76633 13.3827C8.64567 13.4983 8.46567 13.5267 8.319 13.4533C8.13967 13.3637 7.93867 13.3277 7.734 13.346C7.259 13.391 6.81233 13.5473 6.463 13.7817C6.46 13.7757 6.45633 13.7707 6.453 13.765C6.62433 12.718 6.71167 11.2697 6.68333 9.701C6.83533 9.393 7.27 9.05433 7.62733 8.77767L7.74933 8.68267C9.34567 8.553 10.5727 7.181 10.5033 5.56733L10.489 5.23433L10.156 5.24867C9.35467 5.283 8.61533 5.627 8.074 6.217C7.57267 6.76333 7.29967 7.46067 7.28867 8.19633L7.21933 8.25033C7.03067 8.39633 6.833 8.55033 6.65033 8.71433C6.618 8.04667 6.565 7.36967 6.488 6.702C6.577 6.48133 6.65933 6.20233 6.75133 5.88167C6.93267 5.251 7.157 4.481 7.508 3.99133C9.44867 3.899 11 2.29633 11 0.333333V0H10.6667C8.68433 0 7.06833 1.58233 7.006 3.54967C6.66867 3.99667 6.44233 4.599 6.26567 5.17233C6.10933 4.301 5.90567 3.48033 5.64967 2.75833C5.863 1.97667 6.287 1.179 6.56667 0.904667C6.69833 0.775667 6.70033 0.564667 6.57133 0.433333C6.44167 0.301333 6.23067 0.299667 6.1 0.428667C5.821 0.702 5.507 1.24533 5.26467 1.834C5.06233 1.42333 4.836 1.06533 4.583 0.779C4.46167 0.641333 4.25033 0.628667 4.11267 0.750333C3.97467 0.872333 3.96167 1.083 4.08367 1.221C4.48467 1.674 4.835 2.37733 5.12467 3.28567C4.81267 3.031 4.45867 2.79567 4.10067 2.68233C3.92467 2.62567 3.738 2.724 3.68233 2.89933C3.62667 3.075 3.724 3.26233 3.89933 3.31767C4.45467 3.49367 5.07833 4.12733 5.41333 4.468L5.449 4.50367C5.62333 5.292 5.763 6.18167 5.861 7.16167C5.86467 7.19667 5.86733 7.23233 5.87067 7.26733C5.717 7.13567 5.55633 7.01 5.40133 6.89L5.33167 6.836C5.30633 5.26233 4.05733 3.95667 2.465 3.888L2.132 3.87367L2.11767 4.20667C2.048 5.82067 3.27467 7.19233 4.87133 7.32233L4.99333 7.41733C5.36733 7.70633 5.826 8.063 5.95667 8.382C5.98167 8.80133 5.99833 9.223 6.007 9.641C6.005 9.668 6.00467 9.694 6.00867 9.72C6.03167 10.9307 5.98767 12.0997 5.87867 13.051C5.551 12.796 5.15 12.6667 4.66667 12.6667C3.40033 12.6667 2.486 13.4817 2.35067 14.6853C1.045 14.8403 0.0253333 15.9453 0.003 17.2887C0.001 17.3033 0 17.3183 0 17.3333V19.6667C0 19.8507 0.149 20 0.333333 20H19.6667C19.851 20 20 19.8507 20 19.6667V17.3333C20 17.3183 19.999 17.3033 19.997 17.2887C19.9727 15.8387 18.787 14.6667 17.3333 14.6667C16.8977 14.6667 16.4653 14.7747 16.0827 14.979C16.0063 15.0203 15.9103 15.007 15.8557 14.9487C15.7043 14.7873 15.5353 14.646 15.3547 14.5233C15.695 12.9053 15.8037 9.69433 15.463 6.70333C15.5507 6.487 15.6337 6.21367 15.7273 5.89967C15.9167 5.26333 16.1513 4.486 16.5077 3.99133Z" fill="#FE753F"/>
</svg>
