<svg width="22" height="17" viewBox="0 0 22 17" fill="none" xmlns="http://www.w3.org/2000/svg">
<path fill-rule="evenodd" clip-rule="evenodd" d="M1.01852 8.63939L1.79259 6.88754H1.05926C0.244444 6.48013 0 5.95051 0 5.09495L2.56667 5.13569L4.23704 1.3468C4.97037 0.450506 5.66296 -0.0383833 6.23333 0.00235743C9.45185 0.0430982 12.5889 0.0430982 15.7667 0.00235743C16.337 -0.0383833 17.0296 0.450506 17.763 1.3468L19.4333 5.13569L22 5.09495C22 5.95051 21.7556 6.48013 20.9407 6.88754H20.2074L20.9815 8.63939C20.9815 11.0838 20.9815 13.4875 20.9815 15.932C20.9815 16.4209 20.5741 16.8283 20.0852 16.8283H17.0296C16.5407 16.8283 16.1333 16.4209 16.1333 15.932V13.8542H5.86667V15.932C5.86667 16.4209 5.45926 16.8283 4.97037 16.8283H1.91481C1.42593 16.8283 1.01852 16.4209 1.01852 15.932C1.01852 13.4875 1.01852 11.0838 1.01852 8.63939ZM6.43704 1.55051C6.15185 1.59125 5.86667 1.83569 5.54074 2.20236C4.97037 3.46532 4.35926 4.68754 3.78889 5.95051H18.2519C17.6407 4.68754 17.0296 3.46532 16.4593 2.20236C16.1333 1.83569 15.8481 1.59125 15.563 1.55051H6.43704ZM8.55556 10.1061C8.14815 10.1061 7.86296 10.432 7.86296 10.8394C7.86296 11.2468 8.14815 11.5727 8.55556 11.5727H13.4444C13.8519 11.5727 14.1778 11.2468 14.1778 10.8394C14.1778 10.432 13.8519 10.1061 13.4444 10.1061H8.55556ZM18.0889 8.8431C17.3148 8.8431 16.663 9.45421 16.663 10.269C16.663 11.0838 17.3148 11.6949 18.0889 11.6949C18.9037 11.6949 19.5556 11.0838 19.5556 10.269C19.5556 9.45421 18.9037 8.8431 18.0889 8.8431ZM3.91111 8.8431C4.68518 8.8431 5.33704 9.45421 5.33704 10.269C5.33704 11.0838 4.68518 11.6949 3.91111 11.6949C3.0963 11.6949 2.44444 11.0838 2.44444 10.269C2.44444 9.45421 3.0963 8.8431 3.91111 8.8431Z" fill="#FE753F"/>
</svg>
