<svg width="28" height="13" viewBox="0 0 28 13" fill="none" xmlns="http://www.w3.org/2000/svg">
<path d="M20.5038 5.92668C21.9561 6.09668 23.2711 5.05702 23.4411 3.60449C23.6109 2.15237 22.5714 0.837258 21.1189 0.667375C19.6666 0.497374 18.3515 1.53703 18.182 2.98945C18.0116 4.44187 19.0515 5.7568 20.5038 5.92668Z" fill="#FE753F"/>
<path d="M8.97227 3.77349L12.9106 2.98703L13.7575 4.34905L10.6892 7.26669C11.1629 7.38642 11.6179 7.56462 12.0409 7.79776C12.2438 7.90958 12.4339 8.03875 12.6177 8.16355C12.9138 8.36465 13.1925 8.55819 13.4686 8.63402C13.687 8.69397 13.9732 8.69739 13.9914 8.69845C14.3803 8.69509 14.7231 8.58687 15.0729 8.3588C15.9826 7.7656 17.0993 7.15109 18.4843 7.09025C18.5865 7.08577 18.6897 7.08347 18.7913 7.08347C19.2356 7.08347 19.67 7.12713 20.0854 7.21175C19.8004 6.75674 14.7228 0.603587 14.7228 0.603587L14.5889 0.443499C14.2613 0.0540479 13.7129 -0.108872 13.2073 0.0764123L8.42551 1.8303C7.96448 1.99889 7.68224 2.48275 7.78126 2.97901C7.89078 3.52719 8.42403 3.88289 8.97227 3.77349Z" fill="#FE753F"/>
<path d="M26.3799 9.89107C25.728 10.1833 25.2421 10.3025 24.7025 10.3025C24.49 10.3025 24.2701 10.2835 24.0302 10.2442C23.2313 10.1018 22.6619 9.64046 22.1111 9.1943C21.7724 8.91992 21.4525 8.66069 21.0824 8.46986C20.4125 8.1226 19.607 7.93915 18.7521 7.93915C18.6634 7.93915 18.5732 7.94121 18.484 7.94517C17.3151 7.99644 16.3673 8.51648 15.517 9.0708C15.0182 9.39617 14.4265 9.5523 13.8896 9.5523C13.7277 9.5523 13.398 9.51678 13.1841 9.45506C12.7736 9.33669 12.4216 9.09753 12.0812 8.86646C11.9064 8.74761 11.7412 8.6355 11.5743 8.5435C10.8598 8.14957 10.0347 7.94133 9.18831 7.94133H9.17114C7.98614 7.94523 6.91444 8.30865 6.07205 8.99208C4.89903 9.94406 4.12491 10.2115 3.90422 10.2492C3.90422 10.2492 3.71911 10.2976 3.32164 10.2976C2.5602 10.2976 1.92386 10.0482 1.28516 9.77045C0.836466 9.57531 0.413616 9.46332 3.05176e-05 9.43069C0.0802221 9.47701 0.156991 9.52539 0.231459 9.5765C0.555648 9.8025 0.822481 10.0772 1.0804 10.3429C1.21848 10.485 1.34883 10.6193 1.48732 10.7467C2.02954 11.2455 3.14863 11.8351 4.43665 11.8351C5.09022 11.8351 5.72261 11.693 6.31605 11.4126C6.49065 11.3301 6.66065 11.2319 6.84057 11.128C7.13909 10.9557 7.44917 10.782 7.79278 10.6663C8.22637 10.5202 8.89941 10.5686 8.89941 10.5686C9.59723 10.6132 10.1198 10.9429 10.4971 11.2252C11.6466 12.085 12.7311 12.4908 13.9101 12.5023L13.9702 12.5026C14.7814 12.5026 15.5236 12.3463 16.1763 12.0379C16.4803 11.8942 16.7697 11.6828 17.0763 11.4589C17.652 11.0384 18.2474 10.6034 19.0141 10.5733C19.0597 10.5715 19.1061 10.5705 19.1532 10.5705C19.573 10.5705 20.2052 10.6435 20.8326 10.991C21.5879 11.4107 22.5015 11.8396 23.5557 11.8396C23.7089 11.8396 23.8653 11.8306 24.0204 11.8131C24.9908 11.7033 25.8109 11.3455 26.4582 10.7497C26.597 10.6221 26.7276 10.4873 26.8659 10.3448C27.161 10.0409 27.4659 9.72655 27.8512 9.48792C27.8801 9.46993 27.9091 9.45252 27.9384 9.43558C27.4728 9.47701 26.9795 9.62217 26.3799 9.89107Z" fill="#FE753F"/>
</svg>
